. 
  
http://www.torrenting.com/        :     Greatest Movie Tracker on The Net!!!
 
http://www.Torrenting.com          :     Once & For all ;)


               www . Torrenting . Com 

(((((((((((((= Enjoy No RAR releases =))))))))))))))))))))


...................................NFO:....................................

.[img]http://img850.imageshack.us/img850/6248/streetw.jpg[/img]

[color=blue][size=5][b]Street.Kings.2.Motor.City.Unrated.2011.BDRip.XVID.AC3.HQ.Hive-CM8[/b][/size][/color]


[b]Thx Hive

CM8 Doing It Right The First Time :D

You should wait
For Hive-CM8

Why download a touched up rip of a rip BRrip
Get the real deal BDRip

Enjoy


Source: Bluray

Video: 720x400 @bitrate 2000 2pass
Audio: English DTS to AC3 5.1 @448
Sample: yes included
Subs: yes english in srt /subs[/b]



[url]http://www.imdb.com/title/tt1707687/[/url]


General
Complete name                    : Street.Kings.2.Motor.City.Unrated.2011.BDRip.XVID.AC3.HQ.Hive-CM8.avi
Format                           : AVI
Format/Info                      : Audio Video Interleave
File size                        : 1.59 GiB
Duration                         : 1h 32mn
Overall bit rate                 : 2 468 Kbps
Writing application              : Nandub v1.0rc2
Writing library                  : Nandub build 1853/release

Video
ID                               : 0
Format                           : MPEG-4 Visual
Format profile                   : Advanced Simple@L5
Format settings, BVOP            : Yes
Format settings, QPel            : Yes
Format settings, GMC             : No warppoints
Format settings, Matrix          : Default (H.263)
Muxing mode                      : Packed bitstream
Codec ID                         : XVID
Codec ID/Hint                    : XviD
Duration                         : 1h 32mn
Bit rate                         : 2 011 Kbps
Width                            : 720 pixels
Height                           : 400 pixels
Display aspect ratio             : 16:9
Frame rate                       : 23.976 fps
Color space                      : YUV
Chroma subsampling               : 4:2:0
Bit depth                        : 8 bits
Scan type                        : Progressive
Bits/(Pixel*Frame)               : 0.291
Stream size                      : 1.30 GiB (81%)
Writing library                  : XviD 1.2.1 (UTC 2008-12-04)

Audio
ID                               : 1
Format                           : AC-3
Format/Info                      : Audio Coding 3
Mode extension                   : CM (complete main)
Codec ID                         : 2000
Duration                         : 1h 32mn
Bit rate mode                    : Constant
Bit rate                         : 448 Kbps
Channel(s)                       : 6 channels
Channel positions                : Front: L C R, Side: L R, LFE
Sampling rate                    : 48.0 KHz
Bit depth                        : 16 bits
Stream size                      : 296 MiB (18%)
Alignment                        : Split accross interleaves
Interleave, duration             : 42 ms (1.00 video frame)
Interleave, preload duration     : 500 ms


Ray Liotta	 ... 	Marty Kingston
Linda Boston	... 	Captain Walker
Ele Bardha	... 	Sgt. Tomic
Ron Causey	... 	Prisoner
Kevin Chapman	... 	Det.Rogan


Motor City moves the action to Michigan and explores the world of dirty cops on the 
violent streets of Detroit. Marty Kingston (Liotta) is an undercover narcotics detective 
who is shot and barely survives a drug bust gone wrong to save the life of his partner. 
When his partner is killed by a masked gunman four years later, Marty must team up with 
the hotheaded homicide detective Dan Sullivan (Hatosy) to investigate a string of brutal 
cop murders and hunt down the cop killer. The investigation that ensues is shrouded in 
deception and loaded with plot twists that question the line between the rules of law and justice.



[img]http://img263.imageshack.us/img263/9196/56335604.png[/img]
[img]http://img3.imageshack.us/img3/857/stst.png[/img]
[img]http://img546.imageshack.us/img546/5246/ststst.png[/img]
[img]http://img854.imageshack.us/img854/2872/stststst.png[/img]
[img]http://img215.imageshack.us/img215/1051/ststssttst.png[/img]
[img]http://img163.imageshack.us/img163/1461/ststsststtst.png[/img]





Greetz

ViSiON,LUSi,SANTi,MAGNET,THC,T0XiCiNK,LKRG,IMAGiNE,WBZ,FLAWL3SS,NOVA
Vik,Rapeseed,D2U,SAFC,goldadvance,MEMORY100,KaN1vE,Unevano,Pinnz,Wayne,Mr Hive
and all P2P groups 
Great Work Guys :D

CM8@hushmail.com